<?xml version="1.0" encoding="utf-8"?>
<!-- Generator: Adobe Illustrator 24.3.0, SVG Export Plug-In . SVG Version: 6.00 Build 0)  -->
<svg version="1.1" id="Layer_1" xmlns="http://www.w3.org/2000/svg" xmlns:xlink="http://www.w3.org/1999/xlink" x="0px" y="0px"
	 viewBox="0 0 120 100" style="enable-background:new 0 0 120 100;" xml:space="preserve">
<style type="text/css">
	.st0{fill:#FFFFFF;}
</style>
<g id="HWXGkn_1_">
	<g>
		<g>
			<path class="st0" d="M84.8,80.7c0.8,0,1.5,0,2.2,0c0,0.1,0,0.2,0,0.4c0,0.5,0.3,0.8,0.8,0.8c0.2,0,0.4,0,0.7,0.1
				c-0.1,0.1-0.2,0.2-0.3,0.3c-1.3,0.7-2.2,1.8-2.8,3.1c-0.3,0.7-0.6,1.5-0.6,2.3c-0.1,0.7,0,1.4,0.1,2.1c0.2,1.2,0.7,2.3,1.5,3.2
				c0.9,1.1,2.1,1.9,3.5,2.4c1.1,0.4,2.2,0.4,3.3,0.2c0.6-0.1,1.3-0.3,1.8-0.6c1-0.5,1.8-1.1,2.5-1.9c0.8-0.9,1.3-2,1.5-3.2
				c0.2-0.8,0.2-1.6,0.1-2.4c-0.1-0.9-0.4-1.7-0.8-2.5c-0.5-0.9-1.2-1.7-2.1-2.3c-0.3-0.2-0.7-0.4-1-0.7c0.3,0,0.5,0,0.7,0
				c0.5,0,0.8-0.2,0.9-0.8c0-0.1,0-0.2,0-0.4c0.1,0,0.3,0,0.4,0c1,0,2,0,3,0c0.6,0,0.9-0.4,0.9-0.9c0-1,0-2,0-3c0-0.4,0-0.9,0-1.3
				c0-0.5-0.4-0.8-0.8-0.8c-1.7,0-3.5,0-5.2,0c-0.1,0-0.2,0-0.3,0c-0.1-0.3-0.1-1.3,0-1.7c0.1,0,0.2,0,0.3,0c1,0,2.1,0,3.1,0
				c1.1,0,2.2,0,3.3,0c1.2,0,2.4,0,3.5,0c0.6,0,0.9-0.3,0.9-0.9c0-1.1,0-2.2,0-3.2c0-0.2,0-0.4-0.1-0.5c-0.1-0.2-0.3-0.4-0.5-0.4
				c-0.2,0-0.4,0-0.6,0c-0.2,0-0.4,0-0.6,0c0-0.1,0-0.2-0.1-0.3c0.2-0.1,0.3-0.1,0.4-0.2c0.6-0.1,1.1-0.4,1.5-0.9
				c0.5-0.7,0.8-1.5,0.5-2.4c-0.2-0.8-0.7-1.4-1.4-1.8c-0.3-0.2-0.6-0.2-1-0.3c0-0.1,0-0.3,0-0.4c0-1.3,0-2.6,0-3.8
				c0-5.5,0-11.1,0-16.6c0-4.6,0-9.1,0-13.7c0-0.2,0-0.3,0-0.5c0.6-0.6,1.1-1.2,1.6-1.8c0.6-0.6,1.1-1.2,1.6-1.8
				c1.1-1.2,2.2-2.4,3.2-3.5c0.7-0.8,1.3-1.5,2-2.3c0.6-0.7,1.2-1.3,1.9-2c0.5-0.6,1.1-1.2,1.6-1.8c0.3-0.3,0.4-0.6,0.4-1
				c0-0.9,0-1.8,0-2.7c0-1.5,0-3,0-4.5c0-0.7-0.3-1-1-1c-0.7,0-1.5,0-2.2,0c-0.6,0-1.2,0-1.8,0c-0.2,0-0.5,0-0.7,0
				c-4.3,0-8.6,0-12.9,0c-3.1,0-6.2,0-9.4,0c-0.3,0-0.6,0-0.9,0.3c-0.1,0.2-0.2,0.5-0.2,0.8c0,2.4,0,4.9,0,7.3
				c0,0.4,0.1,0.6,0.4,0.9c1,1,1.9,2.1,2.8,3.1c0.7,0.7,1.3,1.4,2,2.1c0.9,1,1.9,2.1,2.8,3.1c0.6,0.7,1.3,1.4,1.9,2.1
				c0.9,1,1.8,2,2.7,3c0.1,0.1,0.2,0.3,0.2,0.5c0,0.4,0,0.9,0,1.3c0,7.4,0,14.8,0,22.3c0,3.4,0,6.8,0,10.3c0,0.2,0,0.4,0,0.6
				c-0.4,0.1-4.9,0.1-5.2,0c0-0.1,0-0.3,0-0.5c0-0.2,0-0.4,0-0.6c-0.1-0.4-0.3-0.6-0.7-0.6c-0.3,0-0.7,0-1,0c-2.4,0-4.8,0-7.2,0
				c-0.2,0-0.4,0-0.6,0.1c-0.3,0.1-0.5,0.3-0.5,0.6c-0.2,1-0.4,1.9-0.6,2.9c-0.2,0.8-0.3,1.5-0.5,2.3c-0.1,0.4-0.2,0.8-0.3,1.2
				c-0.2,0.9-0.4,1.9-0.6,2.8c-0.1,0.7-0.3,1.3-0.4,2c-0.2,0.8-0.3,1.6-0.5,2.4c0,0.1-0.1,0.1-0.1,0.3c-0.2,0-0.4,0-0.7,0
				c-5.7,0-11.3,0-17,0c-3.8,0-7.6,0-11.4,0c-6.1,0-12.3,0-18.4,0c-3.7,0-7.4,0-11.1,0c-5.9,0-11.8,0-17.7,0c0,0-0.1,0-0.1,0
				c-0.7,0-0.9,0.2-0.9,0.9c0,1.4,0,2.8,0,4.2c0,0.6,0.3,0.9,0.9,0.9c0.9,0,1.7,0,2.6,0c0.7,0,1.4,0,2.1,0c0.1,0,0.2,0,0.4,0
				c0,0.2,0.1,0.4,0.1,0.6c0,1.3,0,2.6,0,3.8c0,0.3,0,0.6,0,0.9c0,0.6,0,1.1,0.6,1.3c-0.5,5.1,3.2,7.9,6.1,8.3
				c2.4,0.3,4.4-0.3,6.2-2.1c1.7-1.7,2.3-3.8,2.1-6.2c0.1,0,0.2,0,0.4,0c1.6,0,3.1,0,4.7,0c5.9,0,11.7,0,17.6,0c1.1,0,2.2,0,3.2,0
				c2.6,0,5.2,0,7.7,0c4.8,0,9.6,0,14.3,0c0.7,0,1.5,0,2.2,0c0.6,0,1.1,0,1.7,0c0.5,0,1.1,0,1.6,0c1.6,0,3.2,0,4.8,0
				c0.2,0,0.4,0,0.5,0c0.4,0,0.6-0.2,0.6-0.6c0-0.3,0.1-0.6,0.1-1c0-1.5,0-3,0-4.5C84.7,81.1,84.7,80.9,84.8,80.7z M5.6,76.2
				c31.3,0,62.5,0,93.8,0c0,1,0,2,0,2.9c-31.3,0-62.5,0-93.8,0C5.6,78.1,5.6,77.2,5.6,76.2z M99.8,22.8c-0.2-0.1-0.3-0.2-0.4-0.3
				c-0.5-0.5-1-1.1-1.4-1.6c-0.9-1-1.8-2-2.8-3c-0.6-0.7-1.2-1.3-1.8-2c-0.6-0.7-1.3-1.4-1.9-2.1c-0.4-0.5-0.9-1-1.4-1.5
				c-0.2-0.2-0.2-0.3-0.2-0.5c0-0.5,0-1,0-1.4c0-0.1,0-0.2,0.1-0.4c0.6-0.1,9.6-0.1,9.8,0c0,0.1,0,0.2,0,0.3c0,0.5,0,1,0,1.5
				c0,3.4,0,6.8,0,10.2C99.8,22.3,99.8,22.6,99.8,22.8z M103.8,22.6c0-0.2,0-0.2,0-0.3c0-2.9,0-5.8,0-8.7c0-1,0-2,0-3
				c0-0.2,0-0.3,0-0.5c3.2,0,6.3,0,9.5,0c0,0.1,0,0.1,0,0.2c0,0.6,0,1.2,0,1.8c0,0.1-0.1,0.2-0.2,0.3c-0.5,0.5-0.9,1-1.4,1.6
				c-1.2,1.3-2.3,2.6-3.5,3.9c-1.1,1.2-2.2,2.4-3.3,3.6C104.6,21.7,104.2,22.1,103.8,22.6z M102.2,9.3c0.1,0.4,0.1,52.3,0,52.6
				c-0.2,0-0.5,0-0.8,0c0-17.5,0-35,0-52.6C101.7,9.3,101.9,9.3,102.2,9.3z M21.2,88.4c0,1.7-1.4,3.3-3.3,3.3
				c-1.7,0-3.2-1.4-3.2-3.3c0-1.9,1.5-3.2,3.2-3.2C19.8,85.2,21.2,86.8,21.2,88.4z M91.8,85.2c1.8-0.1,3.2,1.5,3.3,3.1
				c0,1.9-1.5,3.3-3.1,3.3c-1.9,0-3.3-1.4-3.4-3.1C88.5,86.7,90.1,85.2,91.8,85.2z M113.3,7.2c0,0.4,0,0.8,0,1.2
				c-0.4,0.1-9.2,0.1-9.5,0c-0.1-0.5-0.5-0.6-1-0.6c-0.7,0-1.4,0-2.1,0c-0.4,0-0.7,0.1-0.9,0.6c0,0-0.1,0.1-0.1,0.1
				c-3.3,0-6.5,0-9.8,0c0-0.4,0-0.8,0-1.2C97.8,7.2,105.5,7.2,113.3,7.2z M94.6,69.4c0.4-0.1,9.2-0.1,9.5,0c0,0.6,0,1.3,0,2
				c-0.7,0.1-9.2,0-9.5,0C94.6,70.6,94.6,70,94.6,69.4z M100.7,65.8c-0.6,0.1-7.7,0.1-8,0c-0.1-0.3-0.1-1.9,0-2.2c2.6,0,5.1,0,7.8,0
				C100,64.4,100.1,65.1,100.7,65.8z M102.9,65.8c0.3-0.3,0.5-0.7,0.5-1.1c0.1-0.4-0.1-0.8-0.3-1.2c0.2,0,0.4,0,0.5,0
				c0.6,0,1.2,0.7,1,1.4C104.5,65.6,103.8,66,102.9,65.8z M94.6,67.4c0.1,0,0.2,0,0.4,0c1.4,0,2.7,0,4.1,0c0.2,0,0.4,0,0.6,0
				c0,0,0.1,0,0.1,0.1c0,0.1,0,0.1-0.1,0.2c-1.7,0-3.4,0-5.1,0C94.6,67.6,94.6,67.5,94.6,67.4z M102.2,67.4c0,0.1,0,0.2,0,0.3
				c-0.6,0.1-0.7,0.1-0.7-0.3C101.7,67.4,101.9,67.4,102.2,67.4z"/>
		</g>
	</g>
</g>
</svg>
