<?xml version="1.0" encoding="utf-8"?>
<!-- Generator: Adobe Illustrator 24.3.0, SVG Export Plug-In . SVG Version: 6.00 Build 0)  -->
<svg version="1.1" id="Layer_1" xmlns="http://www.w3.org/2000/svg" xmlns:xlink="http://www.w3.org/1999/xlink" x="0px" y="0px"
	 viewBox="0 0 100 100" style="enable-background:new 0 0 100 100;" xml:space="preserve">
<style type="text/css">
	.st0{fill:#FFFFFF;}
</style>
<g id="uFVTb3.tif">
	<g>
		<g>
			<path class="st0" d="M69.4,87.2c0-0.4,0-0.7,0-1c0-13.9,0-27.7,0-41.6c0-0.7,0.2-1.1,0.9-1.4c6.5-2.9,12.9-5.9,19.4-8.8
				c0.4-0.2,0.8-0.4,1.2-0.4c1.4-0.3,2.5,0.6,2.7,2c0,0.4,0,0.7,0,1.1c0,12.4,0,24.8,0,37.1c0,1.4-0.5,2.3-1.8,2.9
				c-7.2,3.3-14.5,6.6-21.7,9.9C69.9,87,69.8,87.1,69.4,87.2z"/>
			<path class="st0" d="M27.9,35.3c0.8,1.6,1.7,3.1,2.4,4.6c0.2,0.3,0.2,0.7,0.2,1c0,12,0,23.9,0,35.9c0,0.6-0.2,0.9-0.7,1.1
				c-6.5,3-13.1,6-19.6,8.9c-0.8,0.4-1.6,0.7-2.5,0.2c-1-0.5-1.4-1.3-1.4-2.4c0-2.6,0-5.2,0-7.8c0-9.9,0-19.8,0-29.7
				c0-1.5,0.5-2.4,2-3.1c6.4-2.8,12.8-5.7,19.2-8.6C27.6,35.4,27.8,35.4,27.9,35.3z"/>
			<path class="st0" d="M68.1,28.1c0.1,3.3-0.7,6.3-2.6,9c-4.5,6.7-9.1,13.3-13.6,19.9c-1,1.5-2.8,1.5-3.8,0
				c-4.5-6.5-8.9-12.9-13.3-19.5c-1.9-2.9-3-6-3-9.6C32,19.5,37,12.6,45.1,10.5c7.2-1.9,13.5-0.1,18.6,5.6
				C66.8,19.5,68.1,23.6,68.1,28.1z M50,36.4c4-0.1,7.2-2.8,7.3-7.2c0-4.3-3.1-7.3-7.2-7.3c-4.3,0-7.3,2.9-7.3,7.2
				C42.7,33.3,45.7,36.2,50,36.4z"/>
			<path class="st0" d="M64.5,47.8c0,13.3,0,26.3,0,39.5c-0.3-0.1-0.6-0.2-0.8-0.2c-9.1-3.1-18.3-6.2-27.4-9.3
				c-0.5-0.2-0.8-0.3-0.8-1c0-9.4,0-18.7,0-28.1c0-0.2,0-0.4,0.1-0.7c0.2,0.3,0.4,0.4,0.5,0.6c2.5,3.7,5.1,7.4,7.6,11
				c1.2,1.7,2.8,3,4.9,3.3c3.2,0.6,5.7-0.7,7.6-3.3c2.6-3.7,5.2-7.5,7.8-11.2C64.1,48.3,64.2,48.1,64.5,47.8z"/>
		</g>
	</g>
</g>
</svg>
