<?xml version="1.0" encoding="utf-8"?>
<!-- Generator: Adobe Illustrator 24.3.0, SVG Export Plug-In . SVG Version: 6.00 Build 0)  -->
<svg version="1.1" id="Layer_1" xmlns="http://www.w3.org/2000/svg" xmlns:xlink="http://www.w3.org/1999/xlink" x="0px" y="0px"
	 viewBox="0 0 500 100" style="enable-background:new 0 0 500 100;" xml:space="preserve">
<style type="text/css">
	.st0{fill:#FFFFFF;}
</style>
<g>
	<path class="st0" d="M266.7,22h-33.5c-5.9,0-10.6,4.7-10.6,10.6v11.2v22.3c0,5.9,4.7,10.6,10.6,10.6h33.2c5.9,0,10.6-4.7,10.6-10.6
		V43.8V32.7C277,26.9,272.5,22,266.7,22z M269.6,28.3h1.3v1.3v8h-9.3v-9.3H269.6z M242.1,43.8c1.8-2.5,4.7-3.9,7.8-3.9
		s6,1.6,7.8,3.9c1,1.6,1.8,3.5,1.8,5.5c0,5.3-4.3,9.6-9.6,9.6c-5.3,0-9.6-4.3-9.6-9.6C240.4,47.2,241.1,45.2,242.1,43.8z
		 M271.9,65.8c0,2.9-2.3,5.2-5.2,5.2h-33.5c-2.9,0-5.2-2.3-5.2-5.2v-22h8.2c-0.7,1.8-1,3.5-1,5.5c0,8.2,6.6,14.7,14.7,14.7
		c8.1,0,14.7-6.6,14.7-14.7c0-2-0.4-3.9-1-5.5h8.2v22H271.9z"/>
</g>
<path class="st0" d="M179.1,30.8c-2.1,1-4.4,1.6-6.9,2.1c2.3-1.4,4.4-3.7,5.1-6.5c-2.3,1.4-4.8,2.3-7.6,2.7
	c-2.1-2.3-5.1-3.7-8.9-3.7c-6.5,0-12,5.5-12,12c0,1,0,1.6,0.3,2.7c-9.9-0.3-18.8-5.1-24.6-12.6c-1,1.6-1.6,3.7-1.6,6.2
	c0,4.1,2.1,7.8,5.5,9.9c-2.1,0-3.7-0.7-5.5-1.4l0,0c0,5.8,4.1,10.6,9.6,11.7c-1,0.3-2.1,0.3-3,0.3c-0.7,0-1.4,0-2.3-0.3
	c1.4,4.8,5.8,8.2,11.3,8.2c-4.1,3-9.2,5.1-14.7,5.1c-1,0-2.1,0-2.7,0c5.1,3.4,11.7,5.5,18.6,5.5c22,0,34-18.1,34-34c0-0.7,0-1,0-1.6
	C175.3,35.6,177.3,33.2,179.1,30.8"/>
<path class="st0" d="M34,36.8h6.8v-6.4c0-3.1,0-7.2,2.3-9.9c2.3-3.1,5.3-4.9,10.3-4.9c8.3,0,12.2,1.2,12.2,1.2L64,26.7
	c0,0-2.7-0.8-5.3-0.8c-2.7,0-4.9,0.8-4.9,3.5v7.6h10.6l-0.8,9.5h-9.9v33.3H41.3V46.4h-6.8v-9.5H34V36.8z"/>
<path class="st0" d="M461.6,49.6l-20.4,12.1V37.9L461.6,49.6z M480.8,60.5V38.6c0,0,0-10.6-10.6-10.6h-40.6c0,0-10.6,0-10.6,10.6v22
	c0,0,0,10.6,10.6,10.6h40.6C469.7,71.5,480.8,71.5,480.8,60.5"/>
<path class="st0" d="M335.9,74h-11.4V37.4h11.4V74z M329.9,32.9L329.9,32.9c-4.2,0-6.8-2.8-6.8-6.3c0-3.6,2.8-6.4,7-6.4
	c4.2,0,6.8,2.7,6.8,6.3C336.8,29.9,334.2,32.9,329.9,32.9z M381.7,74h-12.9V55c0-5-2.1-8.3-6.4-8.3c-3.3,0-5.4,2.3-6.3,4.6
	c-0.4,0.8-0.1,1.9-0.1,3.1V74h-12.9c0,0,0.1-33.6,0-36.6H356v5.6c0.8-2.4,5-6,11.4-6c8.2,0,14.6,5.4,14.6,16.7v20.4h-0.3V74z"/>
</svg>
