<?xml version="1.0" encoding="utf-8"?>
<!-- Generator: Adobe Illustrator 24.3.0, SVG Export Plug-In . SVG Version: 6.00 Build 0)  -->
<svg version="1.1" id="Layer_1" xmlns="http://www.w3.org/2000/svg" xmlns:xlink="http://www.w3.org/1999/xlink" x="0px" y="0px"
	 viewBox="0 0 100 100" style="enable-background:new 0 0 100 100;" xml:space="preserve">
<style type="text/css">
	.st0{fill:#FFFFFF;}
</style>
<g id="DmcfRq.tif">
	<g>
		<g>
			<path class="st0" d="M25.3,6.4c2,0.2,2.7,1.7,3.5,3.2c2.2,3.8,4.3,7.7,6.4,11.5c0.8,1.4,1.8,2.8,2.6,4.2c1,1.8,1,3-0.5,4.5
				c-1.6,1.7-3.4,3.2-5.2,4.7c-1.3,1.1-2.5,2.2-3.8,3.4c-1.1,1.1-1.4,2.4-0.7,3.7c1.5,2.7,2.9,5.4,4.6,8
				c5.4,8.6,12.7,15.3,21.5,20.3c1.5,0.9,3.1,1.8,4.6,2.6c1.5,0.8,3,0.6,4.1-0.7c1.7-2,3.4-4,5.2-6c0.7-0.8,1.5-1.7,2.3-2.4
				c2.2-2,3.3-2,5.8-0.5c4.3,2.5,8.6,5.1,12.9,7.6c1.3,0.8,2.6,1.5,3.9,2.3c0.9,0.5,1.2,1.3,1.2,2.4c-0.1,3.1-0.7,6.1-2.1,8.9
				c-0.7,1.4-1.9,2.6-3.2,3.6c-4.9,3.8-10.4,6.1-16.7,5.9c-3.5-0.1-6.7-1.2-9.9-2.3c-5.7-2.1-11.5-4.1-16.7-7.5
				c-6.8-4.4-12.8-9.8-18.4-15.7c-4.8-5.1-9.3-10.6-12.5-16.9c-3-5.9-5.3-12.1-6.9-18.5c-1.5-6-0.3-11.6,2.7-17
				c0.1-0.2,0.3-0.4,0.4-0.7C13.3,9.4,18,7,23.9,6.6c0.4,0,0.7-0.1,1-0.2C25,6.4,25.2,6.4,25.3,6.4z"/>
		</g>
	</g>
</g>
</svg>
