<?xml version="1.0" encoding="utf-8"?>
<!-- Generator: Adobe Illustrator 24.3.0, SVG Export Plug-In . SVG Version: 6.00 Build 0)  -->
<svg version="1.1" id="Layer_1" xmlns="http://www.w3.org/2000/svg" xmlns:xlink="http://www.w3.org/1999/xlink" x="0px" y="0px"
	 viewBox="0 0 100 100" style="enable-background:new 0 0 100 100;" xml:space="preserve">
<style type="text/css">
	.st0{fill:#FFFFFF;}
</style>
<g id="m3mFrK.tif">
	<g>
		<g>
			<path class="st0" d="M92.7,39c0,13,0,26,0,39c-0.4,0.9-0.6,1.9-1.1,2.7c-1.6,2.6-4,3.8-7.1,3.8c-23,0-46.1,0-69.1,0
				c-0.2,0-0.4,0-0.6,0c-4.4-0.2-7.5-3.4-7.5-7.9c0-12.2,0-24.4,0-36.6c0-0.3,0-0.6,0-0.7c1.7,1.4,3.4,2.8,5.1,4.1
				c8,5.6,16.1,11.2,24.2,16.8c2.5,1.8,5,3.5,7.9,4.7c3,1.3,6.1,1.8,9.2,0.6c2.3-0.9,4.5-1.9,6.5-3.2c6.8-4.6,13.5-9.3,20.1-14.1
				C84.6,45.2,89.2,42.8,92.7,39z"/>
			<path class="st0" d="M92.7,23.7c0,0.9,0,1.9,0,2.8c-0.4,1.2-0.6,2.4-1.1,3.5c-1.6,3.5-4.2,6.1-7.3,8.3
				C76.2,43.9,68.1,49.5,60,55.1c-2,1.4-4,2.7-6.1,3.9c-2.5,1.4-5.2,1.4-7.7,0c-1.5-0.8-2.9-1.6-4.3-2.6c-8.6-6-17.3-12-25.9-18
				c-2.6-1.8-4.8-4-6.6-6.6c-1.4-2-2.3-4.1-2.1-6.6c0.2-3.6,2.3-7.3,6.2-7.8c0,0,0.1-0.1,0.1-0.1c24.2,0,48.4,0,72.6,0
				c1.4,0.4,2.7,0.9,3.8,1.8C91.4,20.3,92.2,21.9,92.7,23.7z"/>
		</g>
	</g>
</g>
</svg>
