<?xml version="1.0" encoding="utf-8"?>
<!-- Generator: Adobe Illustrator 24.2.3, SVG Export Plug-In . SVG Version: 6.00 Build 0)  -->
<svg version="1.1" id="Layer_1" xmlns="http://www.w3.org/2000/svg" xmlns:xlink="http://www.w3.org/1999/xlink" x="0px" y="0px"
	 viewBox="0 0 500 100" style="enable-background:new 0 0 500 100;" xml:space="preserve">
<style type="text/css">
	.st0{fill:#757272;}
</style>
<g>
	<path class="st0" d="M262.8,28.4h-25.7c-4.5,0-8.1,3.6-8.1,8.1v8.6v17.1c0,4.5,3.6,8.1,8.1,8.1h25.5c4.5,0,8.1-3.6,8.1-8.1V45.1
		v-8.5C270.7,32.1,267.2,28.4,262.8,28.4z M265,33.2h1v1v6.1h-7.1v-7.1H265z M243.9,45.1c1.4-1.9,3.6-3,6-3s4.6,1.2,6,3
		c0.8,1.2,1.4,2.7,1.4,4.2c0,4.1-3.3,7.4-7.4,7.4c-4.1,0-7.4-3.3-7.4-7.4C242.6,47.7,243.1,46.2,243.9,45.1z M266.8,62
		c0,2.2-1.8,4-4,4h-25.7c-2.2,0-4-1.8-4-4V45.1h6.3c-0.5,1.4-0.8,2.7-0.8,4.2c0,6.3,5.1,11.3,11.3,11.3s11.3-5.1,11.3-11.3
		c0-1.5-0.3-3-0.8-4.2h6.3V62z"/>
</g>
<path class="st0" d="M171.2,35.8c-1.5,0.7-3.2,1.2-5,1.5c1.7-1,3.2-2.7,3.7-4.7c-1.7,1-3.5,1.7-5.5,2c-1.5-1.7-3.7-2.7-6.5-2.7
	c-4.7,0-8.7,4-8.7,8.7c0,0.7,0,1.2,0.2,2c-7.2-0.2-13.7-3.7-17.9-9.2c-0.7,1.2-1.2,2.7-1.2,4.5c0,3,1.5,5.7,4,7.2
	c-1.5,0-2.7-0.5-4-1l0,0c0,4.2,3,7.7,7,8.5c-0.7,0.2-1.5,0.2-2.2,0.2c-0.5,0-1,0-1.7-0.2c1,3.5,4.2,6,8.2,6c-3,2.2-6.7,3.7-10.7,3.7
	c-0.7,0-1.5,0-2,0c3.7,2.5,8.5,4,13.5,4c16,0,24.7-13.2,24.7-24.7c0-0.5,0-0.7,0-1.2C168.4,39.3,169.9,37.5,171.2,35.8"/>
<path class="st0" d="M37.5,39.2h5.3v-5c0-2.4,0-5.6,1.8-7.7c1.8-2.4,4.1-3.8,8-3.8c6.5,0,9.5,0.9,9.5,0.9l-1.2,7.7
	c0,0-2.1-0.6-4.1-0.6c-2.1,0-3.8,0.6-3.8,2.7v5.9h8.3l-0.6,7.4h-7.7v26h-9.8v-26h-5.3v-7.4H37.5z"/>
<path class="st0" d="M459.6,49.6l-16.9,10V39.9L459.6,49.6z M475.4,58.6V40.5c0,0,0-8.8-8.8-8.8H433c0,0-8.8,0-8.8,8.8v18.2
	c0,0,0,8.8,8.8,8.8h33.6C466.3,67.7,475.4,67.7,475.4,58.6"/>
<path class="st0" d="M340.1,67.2h-8.5V39.9h8.5V67.2z M335.6,36.5L335.6,36.5c-3.1,0-5.1-2.1-5.1-4.7c0-2.7,2.1-4.8,5.2-4.8
	s5.1,2,5.1,4.7C340.8,34.3,338.8,36.5,335.6,36.5z M374.3,67.2h-9.6V53c0-3.7-1.6-6.2-4.8-6.2c-2.5,0-4,1.7-4.7,3.4
	c-0.3,0.6-0.1,1.4-0.1,2.3v14.7h-9.6c0,0,0.1-25.1,0-27.3h9.6v4.2c0.6-1.8,3.7-4.5,8.5-4.5c6.1,0,10.9,4,10.9,12.5v15.2H374.3z"/>
</svg>
