<?xml version="1.0" encoding="utf-8"?>
<!-- Generator: Adobe Illustrator 24.3.0, SVG Export Plug-In . SVG Version: 6.00 Build 0)  -->
<svg version="1.1" id="Layer_1" xmlns="http://www.w3.org/2000/svg" xmlns:xlink="http://www.w3.org/1999/xlink" x="0px" y="0px"
	 viewBox="0 0 100 100" style="enable-background:new 0 0 100 100;" xml:space="preserve">
<style type="text/css">
	.st0{fill:#FFFFFF;}
</style>
<g id="lqMaeU.tif">
	<g>
		<g>
			<path class="st0" d="M8.7,49.2c0.4,0.3,0.6,0.4,0.9,0.6c10.8,7.8,21.6,15.5,32.2,23.3c5.4,4,11.6,3.6,16.6-0.1
				c10.8-7.8,21.5-15.6,32.3-23.4c0.2-0.1,0.3-0.2,0.7-0.5c0,0.5,0,0.9,0,1.2c0,10.8,0,21.6,0,32.3c0,5.3-3.2,8.5-8.5,8.5
				c-21.5,0-42.9,0-64.4,0c-1,0-2-0.1-3-0.1c-3.5-0.3-6.4-3.2-6.7-6.8c-0.1-1-0.1-2-0.1-3c0-10.3,0-20.6,0-30.9
				C8.7,50.1,8.7,49.8,8.7,49.2z"/>
			<path class="st0" d="M76,53.8c0-10,0-19.8,0-29.7c-17.3,0-34.5,0-51.8,0c0,9.9,0,19.7,0,29.8c-1.5-1.1-2.8-2-4.2-3
				c-3.5-2.6-7-5.2-10.6-7.7c-0.5-0.4-0.7-0.7-0.7-1.4c0-3.1,1.1-5.6,3.7-7.4c1.2-0.8,2.4-1.7,3.5-2.7c0.3-0.3,0.6-0.8,0.6-1.2
				c0.1-1.9,0-3.8,0-5.7c0-5.2,3.3-8.3,8.4-8.4c3.5,0,7-0.1,10.4,0c1.4,0,2.3-0.5,3.4-1.3c2.1-1.6,4.2-3.1,6.3-4.6
				c3.6-2.6,7.2-2.1,10.7,0.4c2.2,1.6,4.4,3.2,6.6,4.8c0.7,0.5,1.4,0.8,2.3,0.8c3.6,0,7.2,0,10.8,0c2.7,0,5.1,0.9,6.7,3.2
				c1.1,1.5,1.5,3.3,1.6,5.1c0.1,1.9,0,3.9,0,5.8c0,0.4,0.3,1,0.6,1.2c1.5,1.3,3.2,2.4,4.7,3.8c2,1.8,2.5,4.2,2.4,6.8
				c0,0.2-0.2,0.5-0.4,0.7c-4.8,3.6-9.7,7.1-14.5,10.6C76.3,53.6,76.2,53.7,76,53.8z"/>
			<path class="st0" d="M50.1,44.8c4.2,0,8.4,0,12.6,0c2.1,0,3.3,1.9,2.4,3.6c-0.5,1.1-1.6,1.3-2.7,1.3c-3.4,0-6.7,0-10.1,0
				c-4.9,0-9.8,0-14.6,0c-0.5,0-1,0-1.4-0.2c-1.1-0.3-1.8-1.2-1.8-2.3c0-1.2,0.8-2.2,1.9-2.4c0.4-0.1,0.8-0.1,1.2-0.1
				C41.9,44.8,46,44.8,50.1,44.8z"/>
			<path class="st0" d="M50.2,34.5c4.2,0,8.4,0,12.6,0c2.2,0,3.3,1.9,2.3,3.8c-0.6,1-1.6,1.2-2.6,1.2c-3.7,0-7.4,0-11.1,0
				c-4.6,0-9.2,0-13.8,0c-1.6,0-2.5-0.6-2.9-1.9c-0.5-1.7,0.8-3.1,2.9-3.1c4,0,8,0,12,0C49.7,34.5,49.9,34.5,50.2,34.5z"/>
		</g>
	</g>
</g>
</svg>
