<?xml version="1.0" encoding="utf-8"?>
<!-- Generator: Adobe Illustrator 24.3.0, SVG Export Plug-In . SVG Version: 6.00 Build 0)  -->
<svg version="1.1" id="Layer_1" xmlns="http://www.w3.org/2000/svg" xmlns:xlink="http://www.w3.org/1999/xlink" x="0px" y="0px"
	 viewBox="0 0 100 100" style="enable-background:new 0 0 100 100;" xml:space="preserve">
<style type="text/css">
	.st0{fill:#FFFFFF;}
</style>
<g id="qPbJv8.tif">
	<g>
		<g>
			<path class="st0" d="M42,4.3c11.4,0.1,20.8,3.9,28.5,11.5c6.6,6.5,10.4,14.5,11.4,23.7c1,9.3-0.9,17.9-6.1,25.7
				c-0.6,0.9-0.5,1.3,0.2,2c6,6,12,12,18.1,18c2.7,2.7,3.2,5.8,1.5,8.9C93.6,97.9,88.1,99,85,96c-6.3-6.1-12.5-12.4-18.7-18.6
				c-0.9-0.9-1.4-1-2.4-0.3C57.9,81,51.4,83,44.4,83.2c-11,0.4-20.6-3.1-28.7-10.6C8.8,66.3,4.7,58.3,3.5,49
				C2,36.8,5.4,26,13.7,16.9C20.1,9.9,28.1,6,37.4,4.6C39.2,4.4,40.9,4.3,42,4.3z M67.9,43.7c0.4-13.5-11.8-25.3-25.3-25.3
				c-13.5,0-25.4,11.8-25.4,25.3c0,13.6,11.8,25.4,25.4,25.4C56.3,69.2,68.4,57.3,67.9,43.7z"/>
			<path class="st0" d="M52.7,47.3c-1.9,0-3.8,0-5.7,0c-0.7,0-0.9,0.2-0.9,0.9c0,3.6,0,7.3,0,10.9c0,1.9-0.7,2.6-2.6,2.6
				c-0.7,0-1.4,0-2.2,0c-1.6,0-2.3-0.7-2.3-2.3c0-3.7,0-7.4,0-11.1c0-0.8-0.2-1-1-1c-3.6,0-7.3,0-10.9,0c-1.9,0-2.5-0.7-2.5-2.6
				c0-0.7,0-1.3,0-2c0-1.8,0.7-2.5,2.5-2.5c3.6,0,7.3,0,10.9,0c0.8,0,1.1-0.3,1-1.1c0-3.6,0-7.2,0-10.8c0-1.9,0.7-2.5,2.5-2.6
				c0.8,0,1.5,0,2.3,0c1.5,0,2.3,0.7,2.3,2.3c0,3.7,0,7.4,0,11.1c0,0.8,0.2,1.1,1,1.1c3.6,0,7.3,0,10.9,0c1.8,0,2.5,0.7,2.5,2.5
				c0,0.7,0,1.4,0,2.1c0,1.8-0.7,2.5-2.4,2.5C56.4,47.3,54.5,47.3,52.7,47.3z"/>
		</g>
	</g>
</g>
</svg>
